<mxfile host="app.diagrams.net" modified="2024-04-08T08:17:02.131Z" agent="Mozilla/5.0 (Windows NT 10.0; Win64; x64) AppleWebKit/537.36 (KHTML, like Gecko) Chrome/123.0.0.0 Safari/537.36" etag="0qf_ZZvxehYMe9I5CpWk" version="24.2.2" type="device">
  <diagram name="Página-1" id="LHZQOGE_6NusbL_Ne421">
    <mxGraphModel dx="989" dy="532" grid="1" gridSize="10" guides="1" tooltips="1" connect="1" arrows="1" fold="1" page="1" pageScale="1" pageWidth="1169" pageHeight="827" math="0" shadow="0">
      <root>
        <mxCell id="0" />
        <mxCell id="1" parent="0" />
        <mxCell id="ekJRfyjti95Bc3Rd7iP5-15" style="edgeStyle=orthogonalEdgeStyle;rounded=0;orthogonalLoop=1;jettySize=auto;html=1;" edge="1" parent="1" source="ekJRfyjti95Bc3Rd7iP5-1" target="ekJRfyjti95Bc3Rd7iP5-7">
          <mxGeometry relative="1" as="geometry" />
        </mxCell>
        <mxCell id="ekJRfyjti95Bc3Rd7iP5-16" value="Verifica" style="edgeLabel;html=1;align=center;verticalAlign=middle;resizable=0;points=[];" vertex="1" connectable="0" parent="ekJRfyjti95Bc3Rd7iP5-15">
          <mxGeometry x="-0.1857" y="1" relative="1" as="geometry">
            <mxPoint as="offset" />
          </mxGeometry>
        </mxCell>
        <mxCell id="ekJRfyjti95Bc3Rd7iP5-1" value="Comida Rápida" style="ellipse;whiteSpace=wrap;html=1;" vertex="1" parent="1">
          <mxGeometry x="440" y="290" width="290" height="150" as="geometry" />
        </mxCell>
        <mxCell id="ekJRfyjti95Bc3Rd7iP5-8" style="edgeStyle=orthogonalEdgeStyle;rounded=0;orthogonalLoop=1;jettySize=auto;html=1;" edge="1" parent="1" source="ekJRfyjti95Bc3Rd7iP5-2" target="ekJRfyjti95Bc3Rd7iP5-1">
          <mxGeometry relative="1" as="geometry">
            <Array as="points">
              <mxPoint x="375" y="260" />
              <mxPoint x="375" y="365" />
            </Array>
          </mxGeometry>
        </mxCell>
        <mxCell id="ekJRfyjti95Bc3Rd7iP5-12" value="Pide" style="edgeLabel;html=1;align=center;verticalAlign=middle;resizable=0;points=[];" vertex="1" connectable="0" parent="ekJRfyjti95Bc3Rd7iP5-8">
          <mxGeometry x="0.0969" y="-2" relative="1" as="geometry">
            <mxPoint as="offset" />
          </mxGeometry>
        </mxCell>
        <mxCell id="ekJRfyjti95Bc3Rd7iP5-2" value="Cliente" style="shape=umlActor;verticalLabelPosition=bottom;verticalAlign=top;html=1;" vertex="1" parent="1">
          <mxGeometry x="280" y="230" width="30" height="60" as="geometry" />
        </mxCell>
        <mxCell id="ekJRfyjti95Bc3Rd7iP5-9" style="edgeStyle=orthogonalEdgeStyle;rounded=0;orthogonalLoop=1;jettySize=auto;html=1;" edge="1" parent="1" source="ekJRfyjti95Bc3Rd7iP5-5" target="ekJRfyjti95Bc3Rd7iP5-1">
          <mxGeometry relative="1" as="geometry" />
        </mxCell>
        <mxCell id="ekJRfyjti95Bc3Rd7iP5-13" value="Reparte" style="edgeLabel;html=1;align=center;verticalAlign=middle;resizable=0;points=[];" vertex="1" connectable="0" parent="ekJRfyjti95Bc3Rd7iP5-9">
          <mxGeometry x="0.1303" y="-1" relative="1" as="geometry">
            <mxPoint as="offset" />
          </mxGeometry>
        </mxCell>
        <mxCell id="ekJRfyjti95Bc3Rd7iP5-5" value="Repartidor" style="shape=umlActor;verticalLabelPosition=bottom;verticalAlign=top;html=1;" vertex="1" parent="1">
          <mxGeometry x="480" y="120" width="30" height="60" as="geometry" />
        </mxCell>
        <mxCell id="ekJRfyjti95Bc3Rd7iP5-6" value="Cocinero" style="shape=umlActor;verticalLabelPosition=bottom;verticalAlign=top;html=1;" vertex="1" parent="1">
          <mxGeometry x="710" y="120" width="30" height="60" as="geometry" />
        </mxCell>
        <mxCell id="ekJRfyjti95Bc3Rd7iP5-7" value="Medios de Pago" style="shape=umlActor;verticalLabelPosition=bottom;verticalAlign=top;html=1;" vertex="1" parent="1">
          <mxGeometry x="950" y="250" width="30" height="60" as="geometry" />
        </mxCell>
        <mxCell id="ekJRfyjti95Bc3Rd7iP5-10" style="edgeStyle=orthogonalEdgeStyle;rounded=0;orthogonalLoop=1;jettySize=auto;html=1;entryX=0.749;entryY=0.074;entryDx=0;entryDy=0;entryPerimeter=0;" edge="1" parent="1" source="ekJRfyjti95Bc3Rd7iP5-6" target="ekJRfyjti95Bc3Rd7iP5-1">
          <mxGeometry relative="1" as="geometry" />
        </mxCell>
        <mxCell id="ekJRfyjti95Bc3Rd7iP5-14" value="Elabora" style="edgeLabel;html=1;align=center;verticalAlign=middle;resizable=0;points=[];" vertex="1" connectable="0" parent="ekJRfyjti95Bc3Rd7iP5-10">
          <mxGeometry x="-0.3063" y="3" relative="1" as="geometry">
            <mxPoint as="offset" />
          </mxGeometry>
        </mxCell>
      </root>
    </mxGraphModel>
  </diagram>
</mxfile>
